<?xml version="1.0" encoding="utf-8"?>
<!-- Generator: Adobe Illustrator 16.0.4, SVG Export Plug-In . SVG Version: 6.00 Build 0)  -->
<!DOCTYPE svg PUBLIC "-//W3C//DTD SVG 1.1//EN" "http://www.w3.org/Graphics/SVG/1.1/DTD/svg11.dtd">
<svg version="1.1" id="Layer_1" xmlns="http://www.w3.org/2000/svg" xmlns:xlink="http://www.w3.org/1999/xlink" x="0px" y="0px"
	 width="118.509px" height="117.476px" viewBox="0 0 118.509 117.476" enable-background="new 0 0 118.509 117.476"
	 xml:space="preserve">
<g>
	<path fill-rule="evenodd" clip-rule="evenodd" fill="#696865" d="M118.509,58.675l-13.895,13.818H92.816l8.652,8.344v19.559H81.671
		l-8.521-8.475v11.734l-14.025,13.82l-13.766-13.82V91.921l-8.652,8.475H17.041V80.837l8.523-8.344H13.766L0,58.675l13.766-13.561
		h11.799l-8.523-8.607V17.079h19.666l8.652,8.475V13.688L59.125,0L73.15,13.688v11.865l8.521-8.475h19.797v19.428l-8.652,8.607
		h12.059L118.509,58.675z M40.641,58.675l-6.424-6.262H16.65l-6.162,6.262l6.029,6.256H34.35L40.641,58.675z M45.359,45.114v-8.35
		L32.905,24.511h-8.39v8.605l12.191,11.998H45.359z M45.359,80.708v-8.346h-8.652L24.516,84.489v8.344h8.39L45.359,80.708z
		 M74.464,64.931l-6.297-6.256l6.033-6.262h-8.521v-8.475l-6.554,6.649l-6.553-6.649v8.475h-8.525l6.426,6.262l-6.295,6.256h8.395
		v8.475l6.553-6.519l6.554,6.519v-8.475H74.464z M65.679,33.509V16.948L59.125,10.3l-6.553,6.648v16.561l6.553,6.518L65.679,33.509z
		 M65.679,100.526V83.966l-6.291-6.387l-6.689,6.52v16.428l6.689,6.388L65.679,100.526z M93.734,33.116v-8.605h-8.521L73.15,36.765
		v8.35h8.521L93.734,33.116z M93.734,92.833v-8.344L81.671,72.362H73.15v8.346l12.062,12.125H93.734z M108.023,58.675l-6.291-6.262
		H84.164l-6.426,6.262l6.162,6.256h17.699L108.023,58.675z"/>
	<g>
		<path fill="#FFFFFF" d="M88.748,85.34c0,5.813-4.758,10.526-10.627,10.526H40.682c-5.869,0-10.627-4.713-10.627-10.526V32.137
			c0-5.813,4.758-10.526,10.627-10.526h37.439c5.869,0,10.627,4.713,10.627,10.526V85.34z"/>
		<g>
			<path fill="#6D6C66" d="M86.646,83.515c0,5.416-4.389,9.805-9.803,9.805H42.299c-5.414,0-9.804-4.389-9.804-9.805V33.962
				c0-5.416,4.39-9.805,9.804-9.805h34.544c5.414,0,9.803,4.389,9.803,9.805V83.515z"/>
			<path fill="#FFFFFF" d="M80.197,76.858c0,3.127-2.467,5.662-5.508,5.662H44.453c-3.042,0-5.508-2.535-5.508-5.662V37.287
				c0-3.127,2.466-5.663,5.508-5.663h30.236c3.041,0,5.508,2.536,5.508,5.663V76.858z"/>
			<circle fill="#FFFFFF" cx="59.571" cy="87.675" r="3.098"/>
		</g>
		<g>
			<g>
				<g>
					<path fill-rule="evenodd" clip-rule="evenodd" fill="#6D9342" d="M77.93,76.776h-3.737L67.25,69.8v-4.803h4.904l6.078,6.11
						V60.721h-4.795L69.89,57.12l3.699-3.604h4.643V43.271l-6.078,6.045H67.25v-4.805l6.943-7.051h3.749
						c-0.675-2.021-2.519-3.484-4.714-3.484h-1.871L67.25,38.06v-4.084h-4.299v8.662L59.18,46.39l-3.771-3.752v-8.662h-4.15v4.084
						l-4.17-4.084h-1.334c-2.195,0-4.039,1.463-4.714,3.484h3.052l7.166,7.051v4.805h-4.979l-5.529-5.441v9.642h4.097l3.696,3.604
						l-3.62,3.601H40.75v9.776l5.529-5.5h4.979V69.8l-7.166,6.977h-3.04c0.686,2.001,2.521,3.444,4.702,3.444h1.452l4.052-3.97v3.97
						h4.225v-8.472l3.85-3.751l3.619,3.676v8.547h4.299v-3.97l3.992,3.97h1.986C75.409,80.221,77.245,78.777,77.93,76.776z
						 M62.951,60.721v4.876l-3.771-3.752l-3.771,3.752v-4.876h-4.83l3.623-3.601l-3.697-3.604h4.904V48.64l3.771,3.827l3.771-3.827
						v4.877h4.904l-3.473,3.604l3.623,3.601H62.951z"/>
				</g>
			</g>
		</g>
	</g>
</g>
</svg>
